<svg width="935" height="521" viewBox="0 0 935 521" fill="none" xmlns="http://www.w3.org/2000/svg">
<path d="M184.637 168.883V148.9H235.868C244.091 148.9 249.573 148.078 252.314 146.433C256.262 144.076 258.235 140.54 258.235 135.825C258.235 130.398 255.933 126.423 251.328 123.902C248.696 122.476 244.502 121.764 238.746 121.764H217.941C205.223 121.764 196.067 119.461 190.475 114.856C186.967 111.95 184.226 108.305 182.252 103.919C180.279 99.4785 179.292 94.7638 179.292 89.775C179.292 81.8807 181.594 74.6717 186.199 68.1479C190.695 61.8434 197.904 58.1703 207.827 57.1287C211.171 56.7998 216.159 56.6353 222.793 56.6353H278.464V76.6178H228.22C220.71 76.6726 215.721 77.0016 213.254 77.6046C208.21 78.8655 205.688 82.6756 205.688 89.0349C205.688 94.4075 207.799 98.0257 212.02 99.8897C214.871 101.151 219.586 101.781 226.164 101.781H244.173C253.383 101.781 260.264 102.576 264.814 104.166C272.763 106.852 278.218 111.567 281.178 118.31C283.59 123.737 284.796 129.548 284.796 135.743C284.796 142.541 283.234 148.654 280.109 154.081C275.723 161.756 269.117 166.334 260.291 167.814C256.015 168.526 249.601 168.883 241.049 168.883H184.637ZM302.065 168.883V56.6353H325.913V168.883H302.065ZM348.609 168.883V148.9H399.84C408.063 148.9 413.545 148.078 416.286 146.433C420.233 144.076 422.207 140.54 422.207 135.825C422.207 130.398 419.904 126.423 415.299 123.902C412.668 122.476 408.474 121.764 402.718 121.764H381.913C369.194 121.764 360.039 119.461 354.447 114.856C350.939 111.95 348.198 108.305 346.224 103.919C344.25 99.4785 343.264 94.7638 343.264 89.775C343.264 81.8807 345.566 74.6717 350.171 68.1479C354.667 61.8434 361.876 58.1703 371.798 57.1287C375.142 56.7998 380.131 56.6353 386.765 56.6353H442.436V76.6178H392.192C384.681 76.6726 379.693 77.0016 377.226 77.6046C372.182 78.8655 369.66 82.6756 369.66 89.0349C369.66 94.4075 371.771 98.0257 375.992 99.8897C378.843 101.151 383.558 101.781 390.136 101.781H408.145C417.355 101.781 424.235 102.576 428.786 104.166C436.735 106.852 442.189 111.567 445.15 118.31C447.562 123.737 448.768 129.548 448.768 135.743C448.768 142.541 447.206 148.654 444.081 154.081C439.695 161.756 433.089 166.334 424.263 167.814C419.987 168.526 413.573 168.883 405.02 168.883H348.609ZM489.967 76.6178H454.195V56.6353H550.983V76.6178H513.814V168.883H489.967V76.6178ZM647.607 56.6353V76.6178H616.44C608.272 76.6178 602.324 77.1935 598.596 78.3447C594.923 79.4411 591.853 81.6066 589.386 84.8411C587.741 87.034 586.617 89.2542 586.014 91.5019C585.411 93.7496 584.89 97.5871 584.452 103.014H647.607V122.997H584.452C585.274 132.7 588.098 139.444 592.922 143.226C597.746 147.009 605.942 148.9 617.509 148.9H647.607V168.883H616.44C607.998 168.883 600.569 168.362 594.155 167.32C584.068 165.676 576.037 161.263 570.061 154.081C561.564 143.774 557.315 129.795 557.315 112.142C557.315 92.571 563.318 77.3579 575.324 66.5032C579.436 62.8302 583.821 60.2809 588.481 58.8556C593.141 57.3754 599.391 56.6353 607.23 56.6353H647.607ZM701.058 56.6353L729.017 144.213L758.456 56.6353H793.323V168.883H770.544V84.5944L741.187 168.883H716.6L688.887 84.5944V168.883H666.109V56.6353H701.058ZM805.493 168.883L851.955 56.6353H879.502L925.964 168.883H897.923L887.068 142.897H844.389L833.534 168.883H805.493ZM865.77 83.6076L849.734 122.915H881.723L865.77 83.6076Z" fill="#36251C"/>
<path d="M160.619 280.334V295.234H131.431C125.871 295.234 121.619 294.948 118.676 294.376C108.415 292.373 101.118 286.629 96.7848 277.145C93.9232 270.809 92.4924 262.96 92.4924 253.598C92.4924 242.356 94.6795 233.199 99.0537 226.127C102.201 221.057 106.412 217.358 111.686 215.028C117 212.698 123.868 211.532 132.289 211.532H160.619V226.433H134.313C126.341 226.433 120.495 228.559 116.775 232.811C113.709 236.326 112.176 242.703 112.176 251.942C112.176 264.288 114.568 272.403 119.351 276.286C122.703 278.985 127.915 280.334 134.987 280.334H160.619ZM207.406 210.981C215.787 210.981 223.145 212.411 229.482 215.273C236.963 218.666 242.195 224.369 245.18 232.381C247.551 238.677 248.736 246.076 248.736 254.579C248.736 263.082 247.285 270.461 244.382 276.716C240.826 284.238 235.327 289.47 227.887 292.414C222.328 294.621 215.93 295.725 208.694 295.725C199.292 295.725 191.095 293.967 184.105 290.451C178.259 287.508 173.782 282.909 170.676 276.654C167.61 270.359 166.077 262.735 166.077 253.782C166.077 237.839 170.042 226.474 177.973 219.688C184.677 213.965 194.488 211.062 207.406 210.981ZM207.529 225.084C199.312 225.084 193.425 227.762 189.869 233.117C187.089 237.287 185.699 243.991 185.699 253.23C185.699 263.041 187.457 270.257 190.973 274.876C194.447 279.414 199.987 281.683 207.59 281.683C214.949 281.683 220.365 279.393 223.84 274.815C227.356 270.195 229.114 263.062 229.114 253.414C229.114 244.666 227.703 237.982 224.883 233.362C221.571 227.884 215.787 225.125 207.529 225.084ZM279.151 263.409V295.234H261.368V211.532H302.207C313.94 211.532 322.136 213.025 326.797 216.009C329.944 218.012 332.377 220.669 334.094 223.98C335.852 227.251 336.73 230.869 336.73 234.834C336.73 242.806 334.707 248.938 330.66 253.23C328.166 255.846 324.855 257.85 320.726 259.239C323.996 260.343 326.47 261.549 328.146 262.857C329.822 264.166 331.334 266.087 332.683 268.621C333.705 270.584 334.421 272.505 334.83 274.386C335.279 276.225 335.647 278.964 335.933 282.602C336.424 288.612 337.098 292.822 337.957 295.234H317.966C317.353 293.272 316.74 289.307 316.127 283.338C315.636 278.433 314.737 274.692 313.429 272.117C312.162 269.5 310.22 267.456 307.603 265.985C304.374 264.227 299.673 263.368 293.5 263.409H279.151ZM279.151 248.508H304.169C308.339 248.508 311.303 247.895 313.061 246.669C315.718 244.788 317.047 241.559 317.047 236.98C317.047 231.87 315.044 228.6 311.037 227.169C309.647 226.678 307.358 226.433 304.169 226.433H279.151V248.508ZM368.923 263.409V295.234H351.141V211.532H391.98C403.712 211.532 411.909 213.025 416.569 216.009C419.717 218.012 422.149 220.669 423.866 223.98C425.624 227.251 426.503 230.869 426.503 234.834C426.503 242.806 424.48 248.938 420.432 253.23C417.939 255.846 414.627 257.85 410.499 259.239C413.769 260.343 416.242 261.549 417.918 262.857C419.594 264.166 421.107 266.087 422.456 268.621C423.478 270.584 424.193 272.505 424.602 274.386C425.052 276.225 425.42 278.964 425.706 282.602C426.196 288.612 426.871 292.822 427.729 295.234H407.739C407.126 293.272 406.513 289.307 405.9 283.338C405.409 278.433 404.51 274.692 403.201 272.117C401.934 269.5 399.992 267.456 397.376 265.985C394.146 264.227 389.445 263.368 383.272 263.409H368.923ZM368.923 248.508H393.942C398.112 248.508 401.076 247.895 402.834 246.669C405.491 244.788 406.819 241.559 406.819 236.98C406.819 231.87 404.816 228.6 400.81 227.169C399.42 226.678 397.131 226.433 393.942 226.433H368.923V248.508ZM503.705 211.532V226.433H480.465C474.374 226.433 469.938 226.862 467.158 227.721C464.419 228.539 462.13 230.153 460.29 232.565C459.064 234.2 458.226 235.856 457.776 237.532C457.327 239.208 456.938 242.07 456.611 246.117H503.705V261.018H456.611C457.224 268.254 459.33 273.282 462.927 276.103C466.525 278.923 472.636 280.334 481.262 280.334H503.705V295.234H480.465C474.169 295.234 468.63 294.846 463.847 294.069C456.325 292.843 450.336 289.552 445.88 284.197C439.544 276.511 436.376 266.087 436.376 252.924C436.376 238.329 440.852 226.985 449.805 218.891C452.871 216.152 456.141 214.251 459.616 213.188C463.091 212.084 467.751 211.532 473.597 211.532H503.705ZM536.511 226.433H509.837V211.532H582.011V226.433H554.294V295.234H536.511V226.433ZM572.506 295.234L607.152 211.532H627.694L662.34 295.234H641.43L633.336 275.857H601.511L593.416 295.234H572.506ZM617.454 231.645L605.496 260.956H629.35L617.454 231.645ZM698.09 245.504H739.236V295.234H701.83C695.33 295.234 690.18 294.764 686.378 293.824C682.617 292.843 679.183 291.146 676.076 288.734C667.287 281.948 662.892 270.277 662.892 253.721C662.892 242.847 664.977 233.833 669.147 226.678C672.254 221.405 676.464 217.562 681.779 215.15C687.134 212.738 694.104 211.532 702.689 211.532H739.236V226.433H704.712C697.272 226.433 691.856 228.068 688.463 231.339C684.497 235.182 682.515 242.07 682.515 252.004C682.515 257.114 683.026 261.733 684.048 265.862C685.11 269.95 686.541 272.996 688.34 274.999C689.975 276.838 692.183 278.187 694.963 279.046C697.742 279.904 701.197 280.334 705.326 280.334H721.453V260.405H698.09V245.504ZM817.051 211.532V226.433H793.811C787.719 226.433 783.284 226.862 780.504 227.721C777.765 228.539 775.476 230.153 773.636 232.565C772.41 234.2 771.572 235.856 771.122 237.532C770.672 239.208 770.284 242.07 769.957 246.117H817.051V261.018H769.957C770.57 268.254 772.676 273.282 776.273 276.103C779.87 278.923 785.982 280.334 794.608 280.334H817.051V295.234H793.811C787.515 295.234 781.976 294.846 777.193 294.069C769.671 292.843 763.682 289.552 759.226 284.197C752.89 276.511 749.721 266.087 749.721 252.924C749.721 238.329 754.198 226.985 763.15 218.891C766.216 216.152 769.487 214.251 772.962 213.188C776.437 212.084 781.097 211.532 786.943 211.532H817.051ZM856.909 211.532L877.758 276.838L899.71 211.532H925.71V295.234H908.724V232.381L886.833 295.234H868.498L847.834 232.381V295.234H830.848V211.532H856.909Z" fill="#36251C"/>
<path d="M525.141 455.947V479.984H478.054C469.086 479.984 462.227 479.523 457.479 478.599C440.926 475.368 429.155 466.103 422.164 450.803C417.548 440.581 415.24 427.919 415.24 412.817C415.24 394.682 418.768 379.91 425.824 368.501C430.902 360.323 437.695 354.355 446.202 350.596C454.775 346.837 465.854 344.958 479.439 344.958H525.141V368.995H482.704C469.844 368.995 460.413 372.425 454.412 379.283C449.466 384.955 446.993 395.242 446.993 410.146C446.993 430.062 450.851 443.153 458.567 449.418C463.975 453.77 472.383 455.947 483.792 455.947H525.141ZM534.934 479.984L590.824 344.958H623.962L679.852 479.984H646.121L633.063 448.725H581.723L568.666 479.984H534.934ZM607.443 377.404L588.153 424.688H626.633L607.443 377.404ZM802.019 400.155V424.193H721.498V479.984H692.811V409.454C693.009 389.208 694.954 375.887 698.647 369.49C703.198 360.653 709.825 354.355 718.53 350.596C727.301 346.837 739.568 344.958 755.329 344.958H802.019V368.995H758.989C745.602 369.193 736.996 370.281 733.171 372.26C725.587 375.359 721.696 382.251 721.498 392.934V400.155H802.019ZM924.681 344.958V368.995H887.19C877.364 368.995 870.209 369.688 865.724 371.073C861.306 372.392 857.613 374.997 854.645 378.887C852.667 381.525 851.315 384.196 850.59 386.9C849.864 389.604 849.238 394.22 848.71 400.749H924.681V424.787H848.71C849.699 436.459 853.096 444.571 858.899 449.121C864.702 453.671 874.561 455.947 888.476 455.947H924.681V479.984H887.19C877.034 479.984 868.098 479.358 860.383 478.105C848.248 476.126 838.587 470.818 831.399 462.179C821.177 449.781 816.066 432.964 816.066 411.729C816.066 388.186 823.287 369.886 837.73 356.828C842.676 352.41 847.952 349.343 853.557 347.629C859.163 345.848 866.681 344.958 876.111 344.958H924.681ZM914.294 309.841L888.872 334.769H871.066L889.663 309.841H914.294Z" fill="#36251C"/>
<rect x="-15.9688" y="344.242" width="415.646" height="136.541" fill="#36251C"/>
<path d="M329.972 461.14V438.1C329.972 432.344 330.543 427.887 331.683 424.73C333.779 418.92 337.652 415.047 343.303 413.11C347.627 411.625 352.269 410.882 357.23 410.882C362.138 410.882 366.767 411.585 371.118 412.991C375.575 414.397 378.851 416.745 380.946 420.034C382.273 422.104 383.162 424.372 383.613 426.839C384.064 429.28 384.289 433.033 384.289 438.1V461.14H329.972ZM339.642 449.6H374.619V438.1C374.619 433.06 373.492 429.558 371.237 427.595C369.858 426.401 367.895 425.446 365.348 424.73C362.775 423.987 360.042 423.616 357.151 423.616C353.967 423.616 351.036 424.053 348.356 424.929C345.677 425.778 343.687 426.918 342.388 428.351C340.557 430.42 339.642 433.67 339.642 438.1V449.6ZM329.972 361.977H339.642V377.059C339.642 381.011 339.92 383.89 340.478 385.693C341.008 387.471 342.056 388.956 343.621 390.15C344.682 390.946 345.757 391.49 346.844 391.782C347.932 392.074 349.789 392.326 352.415 392.538V361.977H362.085V392.538C366.78 392.14 370.043 390.774 371.874 388.439C373.704 386.105 374.619 382.139 374.619 376.541V361.977H384.289V377.059C384.289 381.144 384.037 384.738 383.533 387.842C382.737 392.723 380.602 396.61 377.126 399.501C372.139 403.613 365.374 405.669 356.832 405.669C347.362 405.669 340 402.764 334.747 396.955C332.97 394.965 331.736 392.843 331.047 390.588C330.33 388.333 329.972 385.309 329.972 381.515V361.977Z" fill="#FFF0D3"/>
</svg>
