<svg width="962" height="1010" viewBox="0 0 962 1010" fill="none" xmlns="http://www.w3.org/2000/svg">
<g opacity="0.14">
<path d="M164.913 218.839V252.867H98.2569C85.5606 252.867 75.8516 252.214 69.13 250.907C45.6978 246.332 29.0339 233.216 19.1382 211.557C12.6034 197.087 9.33593 179.163 9.33593 157.785C9.33593 132.112 14.3304 111.2 24.3195 95.0499C31.5078 83.4739 41.1234 75.0252 53.1663 69.704C65.3025 64.3827 80.9862 61.7221 100.217 61.7221H164.913V95.7501H104.838C86.6342 95.7501 73.2844 100.605 64.789 110.314C57.7874 118.342 54.2865 132.906 54.2865 154.004C54.2865 182.197 59.7478 200.728 70.6704 209.597C78.3255 215.758 90.2284 218.839 106.379 218.839H164.913ZM271.758 60.4618C290.896 60.4618 307.7 63.7292 322.17 70.2641C339.254 78.0126 351.203 91.0357 358.018 109.333C363.433 123.71 366.14 140.607 366.14 160.025C366.14 179.443 362.826 196.294 356.198 210.577C348.076 227.755 335.52 239.704 318.529 246.426C305.833 251.467 291.222 253.987 274.699 253.987C253.227 253.987 234.509 249.973 218.545 241.945C205.195 235.223 194.973 224.721 187.878 210.437C180.876 196.06 177.376 178.65 177.376 158.205C177.376 121.796 186.431 95.8435 204.542 80.3465C219.852 67.2767 242.258 60.6485 271.758 60.4618ZM272.038 92.6694C253.274 92.6694 239.83 98.7842 231.708 111.014C225.36 120.536 222.186 135.846 222.186 156.945C222.186 179.35 226.2 195.827 234.229 206.376C242.164 216.739 254.814 221.92 272.178 221.92C288.982 221.92 301.352 216.692 309.287 206.236C317.315 195.687 321.33 179.397 321.33 157.365C321.33 137.387 318.109 122.123 311.667 111.574C304.106 99.0642 290.896 92.7627 272.038 92.6694ZM435.597 180.19V252.867H394.987V61.7221H488.249C515.042 61.7221 533.76 65.1295 544.402 71.9445C551.591 76.5189 557.145 82.587 561.066 90.1488C565.08 97.6172 567.088 105.879 567.088 114.935C567.088 133.139 562.466 147.142 553.224 156.945C547.53 162.919 539.968 167.494 530.539 170.668C538.007 173.188 543.655 175.942 547.483 178.93C551.311 181.917 554.765 186.305 557.845 192.093C560.179 196.574 561.813 200.962 562.747 205.256C563.773 209.457 564.614 215.712 565.267 224.02C566.387 237.744 567.928 247.359 569.888 252.867H524.237C522.837 248.386 521.437 239.331 520.036 225.701C518.916 214.498 516.862 205.956 513.875 200.075C510.981 194.1 506.547 189.432 500.572 186.071C493.197 182.057 482.461 180.097 468.364 180.19H435.597ZM435.597 146.162H492.73C502.252 146.162 509.021 144.762 513.035 141.961C519.103 137.667 522.137 130.292 522.137 119.836C522.137 108.166 517.563 100.698 508.414 97.4305C505.24 96.3102 500.012 95.7501 492.73 95.7501H435.597V146.162ZM640.605 180.19V252.867H599.995V61.7221H693.257C720.05 61.7221 738.768 65.1295 749.411 71.9445C756.599 76.5189 762.154 82.587 766.075 90.1488C770.089 97.6172 772.096 105.879 772.096 114.935C772.096 133.139 767.475 147.142 758.233 156.945C752.538 162.919 744.976 167.494 735.547 170.668C743.016 173.188 748.664 175.942 752.491 178.93C756.319 181.917 759.773 186.305 762.854 192.093C765.188 196.574 766.821 200.962 767.755 205.256C768.782 209.457 769.622 215.712 770.276 224.02C771.396 237.744 772.936 247.359 774.897 252.867H729.246C727.846 248.386 726.445 239.331 725.045 225.701C723.925 214.498 721.871 205.956 718.883 200.075C715.989 194.1 711.555 189.432 705.58 186.071C698.205 182.057 687.469 180.097 673.373 180.19H640.605ZM640.605 146.162H697.738C707.261 146.162 714.029 144.762 718.043 141.961C724.111 137.667 727.145 130.292 727.145 119.836C727.145 108.166 722.571 100.698 713.422 97.4305C710.248 96.3102 705.02 95.7501 697.738 95.7501H640.605V146.162ZM948.398 61.7221V95.7501H895.325C881.415 95.7501 871.286 96.7303 864.938 98.6908C858.683 100.558 853.455 104.245 849.254 109.753C846.454 113.488 844.54 117.269 843.513 121.096C842.486 124.924 841.599 131.459 840.852 140.701H948.398V174.729H840.852C842.253 191.253 847.06 202.735 855.276 209.177C863.491 215.618 877.448 218.839 897.145 218.839H948.398V252.867H895.325C880.948 252.867 868.299 251.98 857.376 250.207C840.199 247.406 826.522 239.891 816.346 227.661C801.876 210.11 794.641 186.305 794.641 156.244C794.641 122.917 804.864 97.0104 825.309 78.526C832.31 72.2712 839.779 67.9302 847.714 65.503C855.649 62.9824 866.292 61.7221 879.641 61.7221H948.398ZM1023.32 95.7501H962.401V61.7221H1127.22V95.7501H1063.92V252.867H1023.32V95.7501ZM1105.51 252.867L1184.63 61.7221H1231.54L1310.66 252.867H1262.91L1244.43 208.617H1171.75L1153.27 252.867H1105.51ZM1208.16 107.653L1180.85 174.589H1235.33L1208.16 107.653ZM1392.3 139.3H1486.26V252.867H1400.84C1386 252.867 1374.24 251.794 1365.56 249.646C1356.97 247.406 1349.13 243.532 1342.03 238.024C1321.96 222.527 1311.92 195.874 1311.92 158.065C1311.92 133.232 1316.68 112.647 1326.21 96.3102C1333.3 84.2674 1342.92 75.492 1355.05 69.984C1367.28 64.4761 1383.2 61.7221 1402.8 61.7221H1486.26V95.7501H1407.43C1390.44 95.7501 1378.07 99.4843 1370.32 106.953C1361.26 115.728 1356.73 131.459 1356.73 154.144C1356.73 165.813 1357.9 176.362 1360.23 185.791C1362.66 195.127 1365.93 202.082 1370.04 206.656C1373.77 210.857 1378.81 213.938 1385.16 215.898C1391.51 217.859 1399.4 218.839 1408.83 218.839H1445.65V173.328H1392.3V139.3ZM1663.97 61.7221V95.7501H1610.89C1596.98 95.7501 1586.85 96.7303 1580.51 98.6908C1574.25 100.558 1569.02 104.245 1564.82 109.753C1562.02 113.488 1560.11 117.269 1559.08 121.096C1558.05 124.924 1557.17 131.459 1556.42 140.701H1663.97V174.729H1556.42C1557.82 191.253 1562.63 202.735 1570.84 209.177C1579.06 215.618 1593.02 218.839 1612.71 218.839H1663.97V252.867H1610.89C1596.52 252.867 1583.87 251.98 1572.95 250.207C1555.77 247.406 1542.09 239.891 1531.92 227.661C1517.45 210.11 1510.21 186.305 1510.21 156.244C1510.21 122.917 1520.43 97.0104 1540.88 78.526C1547.88 72.2712 1555.35 67.9302 1563.28 65.503C1571.22 62.9824 1581.86 61.7221 1595.21 61.7221H1663.97ZM1754.99 61.7221L1802.6 210.857L1852.73 61.7221H1912.11V252.867H1873.32V109.333L1823.32 252.867H1781.45L1734.26 109.333V252.867H1695.47V61.7221H1754.99Z" fill="#36251C"/>
<path d="M-770.61 450.548V483.992H-836.122C-848.601 483.992 -858.143 483.35 -864.749 482.065C-887.78 477.569 -904.158 464.678 -913.884 443.391C-920.307 429.169 -923.518 411.552 -923.518 390.541C-923.518 365.308 -918.609 344.755 -908.791 328.882C-901.726 317.504 -892.276 309.201 -880.439 303.971C-868.511 298.741 -853.097 296.126 -834.195 296.126H-770.61V329.57H-829.653C-847.545 329.57 -860.666 334.341 -869.016 343.884C-875.897 351.774 -879.338 366.088 -879.338 386.825C-879.338 414.534 -873.971 432.747 -863.235 441.464C-855.712 447.52 -844.013 450.548 -828.139 450.548H-770.61ZM-665.597 294.887C-646.787 294.887 -630.272 298.098 -616.05 304.521C-599.259 312.137 -587.514 324.936 -580.816 342.92C-575.494 357.05 -572.834 373.658 -572.834 392.743C-572.834 411.828 -576.091 428.389 -582.605 442.428C-590.588 459.31 -602.929 471.055 -619.628 477.661C-632.107 482.616 -646.466 485.093 -662.707 485.093C-683.81 485.093 -702.207 481.148 -717.897 473.257C-731.018 466.651 -741.065 456.328 -748.038 442.29C-754.92 428.16 -758.36 411.048 -758.36 390.953C-758.36 355.169 -749.46 329.662 -731.66 314.431C-716.612 301.585 -694.591 295.07 -665.597 294.887ZM-665.322 326.542C-683.764 326.542 -696.977 332.552 -704.96 344.572C-711.199 353.931 -714.318 368.978 -714.318 389.715C-714.318 411.736 -710.373 427.93 -702.482 438.299C-694.683 448.483 -682.25 453.576 -665.184 453.576C-648.668 453.576 -636.511 448.437 -628.712 438.161C-620.821 427.793 -616.876 411.782 -616.876 390.128C-616.876 370.492 -620.041 355.491 -626.372 345.122C-633.804 332.827 -646.787 326.634 -665.322 326.542ZM-504.568 412.562V483.992H-544.482V296.126H-452.819C-426.486 296.126 -408.089 299.475 -397.629 306.173C-390.564 310.669 -385.105 316.633 -381.251 324.065C-377.305 331.405 -375.333 339.525 -375.333 348.425C-375.333 366.317 -379.875 380.081 -388.958 389.715C-394.555 395.587 -401.987 400.083 -411.254 403.203C-403.914 405.68 -398.363 408.387 -394.601 411.323C-390.839 414.259 -387.444 418.571 -384.416 424.26C-382.123 428.664 -380.517 432.977 -379.599 437.198C-378.59 441.327 -377.764 447.474 -377.122 455.64C-376.021 469.128 -374.507 478.579 -372.58 483.992H-417.448C-418.824 479.588 -420.201 470.688 -421.577 457.292C-422.678 446.281 -424.696 437.886 -427.633 432.105C-430.477 426.233 -434.835 421.645 -440.708 418.342C-447.956 414.397 -458.508 412.47 -472.363 412.562H-504.568ZM-504.568 379.117H-448.415C-439.056 379.117 -432.404 377.741 -428.458 374.988C-422.494 370.768 -419.512 363.519 -419.512 353.243C-419.512 341.773 -424.008 334.433 -433 331.222C-436.12 330.12 -441.258 329.57 -448.415 329.57H-504.568V379.117ZM-303.076 412.562V483.992H-342.989V296.126H-251.327C-224.994 296.126 -206.597 299.475 -196.137 306.173C-189.072 310.669 -183.612 316.633 -179.759 324.065C-175.813 331.405 -173.841 339.525 -173.841 348.425C-173.841 366.317 -178.382 380.081 -187.466 389.715C-193.063 395.587 -200.495 400.083 -209.762 403.203C-202.422 405.68 -196.871 408.387 -193.109 411.323C-189.347 414.259 -185.952 418.571 -182.924 424.26C-180.63 428.664 -179.025 432.977 -178.107 437.198C-177.098 441.327 -176.272 447.474 -175.63 455.64C-174.529 469.128 -173.015 478.579 -171.088 483.992H-215.956C-217.332 479.588 -218.708 470.688 -220.085 457.292C-221.186 446.281 -223.204 437.886 -226.141 432.105C-228.985 426.233 -233.343 421.645 -239.215 418.342C-246.464 414.397 -257.016 412.47 -270.871 412.562H-303.076ZM-303.076 379.117H-246.923C-237.564 379.117 -230.912 377.741 -226.966 374.988C-221.002 370.768 -218.02 363.519 -218.02 353.243C-218.02 341.773 -222.516 334.433 -231.508 331.222C-234.628 330.12 -239.766 329.57 -246.923 329.57H-303.076V379.117ZM-0.562943 296.126V329.57H-52.7252C-66.3965 329.57 -76.3519 330.533 -82.5912 332.46C-88.7387 334.295 -93.8769 337.92 -98.0058 343.333C-100.758 347.003 -102.639 350.719 -103.649 354.481C-104.658 358.243 -105.53 364.666 -106.264 373.75H-0.562943V407.194H-106.264C-104.887 423.434 -100.162 434.72 -92.0877 441.051C-84.0133 447.382 -70.2961 450.548 -50.936 450.548H-0.562943V483.992H-52.7252C-66.8553 483.992 -79.288 483.121 -90.0232 481.377C-106.906 478.625 -120.348 471.238 -130.349 459.219C-144.571 441.969 -151.682 418.571 -151.682 389.027C-151.682 356.27 -141.635 330.809 -121.541 312.641C-114.659 306.494 -107.319 302.227 -99.5198 299.842C-91.7207 297.364 -81.2607 296.126 -68.1399 296.126H-0.562943ZM73.0697 329.57H13.2002V296.126H175.192V329.57H112.983V483.992H73.0697V329.57ZM153.859 483.992L231.621 296.126H277.727L355.489 483.992H308.557L290.39 440.501H218.959L200.792 483.992H153.859ZM254.743 341.269L227.905 407.056H281.443L254.743 341.269ZM435.728 372.373H528.079V483.992H444.124C429.535 483.992 417.974 482.937 409.44 480.827C400.999 478.625 393.292 474.817 386.318 469.403C366.591 454.172 356.728 427.976 356.728 390.816C356.728 366.409 361.407 346.177 370.766 330.12C377.739 318.284 387.19 309.659 399.118 304.246C411.138 298.832 426.782 296.126 446.05 296.126H528.079V329.57H450.592C433.893 329.57 421.736 333.24 414.12 340.58C405.22 349.205 400.77 364.666 400.77 386.962C400.77 398.431 401.917 408.8 404.21 418.067C406.596 427.242 409.807 434.078 413.845 438.574C417.515 442.703 422.47 445.731 428.709 447.658C434.948 449.584 442.701 450.548 451.969 450.548H488.166V405.818H435.728V372.373ZM702.733 296.126V329.57H650.57C636.899 329.57 626.944 330.533 620.704 332.46C614.557 334.295 609.419 337.92 605.29 343.333C602.537 347.003 600.656 350.719 599.647 354.481C598.638 358.243 597.766 364.666 597.032 373.75H702.733V407.194H597.032C598.408 423.434 603.134 434.72 611.208 441.051C619.282 447.382 632.999 450.548 652.36 450.548H702.733V483.992H650.57C636.44 483.992 624.008 483.121 613.272 481.377C596.39 478.625 582.948 471.238 572.946 459.219C558.725 441.969 551.614 418.571 551.614 389.027C551.614 356.27 561.661 330.809 581.755 312.641C588.636 306.494 595.977 302.227 603.776 299.842C611.575 297.364 622.035 296.126 635.156 296.126H702.733ZM792.193 296.126L838.987 442.703L888.259 296.126H946.615V483.992H908.491V342.92L859.357 483.992H818.205L771.823 342.92V483.992H733.7V296.126H792.193Z" fill="#36251C"/>
<path d="M602.675 550.126H682.363C702.274 550.126 717.688 552.098 728.607 556.044C748.701 563.292 762.097 576.688 768.796 596.232C773.934 611.188 776.503 627.245 776.503 644.403C776.503 661.377 774.071 677.389 769.208 692.436C764.345 707.851 756.225 719.183 744.848 726.431C737.691 731.019 729.846 734.093 721.313 735.652C712.871 737.212 699.888 737.992 682.363 737.992H602.675V550.126ZM642.588 583.57V704.548H682.363C699.796 704.548 711.908 700.648 718.698 692.849C722.827 688.078 726.13 681.288 728.607 672.48C731.176 663.58 732.461 654.129 732.461 644.128C732.461 633.117 730.947 622.978 727.919 613.711C724.983 604.444 721.037 597.562 716.083 593.067C708.926 586.735 697.686 583.57 682.363 583.57H642.588ZM945.652 550.126V583.57H893.489C879.818 583.57 869.863 584.533 863.623 586.46C857.476 588.295 852.338 591.92 848.209 597.333C845.456 601.003 843.575 604.719 842.566 608.481C841.557 612.243 840.685 618.666 839.951 627.75H945.652V661.194H839.951C841.327 677.434 846.052 688.72 854.127 695.051C862.201 701.382 875.918 704.548 895.279 704.548H945.652V737.992H893.489C879.359 737.992 866.927 737.121 856.191 735.377C839.309 732.625 825.867 725.238 815.865 713.219C801.643 695.969 794.533 672.571 794.533 643.027C794.533 610.27 804.58 584.809 824.674 566.641C831.555 560.494 838.896 556.227 846.695 553.842C854.494 551.364 864.954 550.126 878.075 550.126H945.652Z" fill="#36251C"/>
<path d="M389.984 952.345V985.789H324.472C311.993 985.789 302.451 985.147 295.844 983.862C272.814 979.366 256.436 966.475 246.71 945.188C240.287 930.966 237.076 913.349 237.076 892.337C237.076 867.105 241.985 846.552 251.802 830.679C258.867 819.301 268.318 810.997 280.154 805.767C292.082 800.537 307.497 797.922 326.399 797.922H389.984V831.367H330.94C313.048 831.367 299.927 836.138 291.578 845.68C284.696 853.571 281.255 867.885 281.255 888.621C281.255 916.331 286.623 934.544 297.358 943.261C304.882 949.317 316.581 952.345 332.454 952.345H389.984ZM403.61 985.789L481.371 797.922H527.478L605.239 985.789H558.307L540.14 942.298H468.709L450.542 985.789H403.61ZM504.493 843.065L477.655 908.853H531.194L504.493 843.065ZM775.214 874.721V908.165H663.182V985.789H623.269V887.658C623.544 859.489 626.251 840.955 631.389 832.055C637.72 819.76 646.942 810.997 659.053 805.767C671.256 800.537 688.323 797.922 710.252 797.922H775.214V831.367H715.344C696.718 831.642 684.744 833.156 679.423 835.909C668.871 840.221 663.457 849.809 663.182 864.674V874.721H775.214ZM945.877 797.922V831.367H893.714C880.043 831.367 870.088 832.33 863.848 834.257C857.701 836.092 852.563 839.716 848.434 845.13C845.681 848.8 843.8 852.516 842.791 856.278C841.782 860.04 840.91 866.463 840.176 875.546H945.877V908.991H840.176C841.552 925.231 846.278 936.517 854.352 942.848C862.426 949.179 876.143 952.345 895.504 952.345H945.877V985.789H893.714C879.584 985.789 867.152 984.917 856.416 983.174C839.534 980.421 826.092 973.035 816.09 961.015C801.868 943.766 794.758 920.368 794.758 890.824C794.758 858.067 804.805 832.606 824.899 814.438C831.78 808.291 839.121 804.024 846.92 801.638C854.719 799.161 865.179 797.922 878.3 797.922H945.877ZM931.425 749.063L896.054 783.746H871.281L897.155 749.063H931.425Z" fill="#36251C"/>
</g>
</svg>
